/* XPM */
static char *_6c2fa95f69f461fac4daffa427ad019UnPK8XEiRh2mfYba[] = {
/* columns rows colors chars-per-pixel */
"64 48 172 2 ",
"   c None",
".  c #030407",
"X  c #040609",
"o  c #040A0D",
"O  c #0A0C0E",
"+  c #040D12",
"@  c #0B0E12",
"#  c #051114",
"$  c #0C1215",
"%  c #071119",
"&  c #0C141B",
"*  c #0D191E",
"=  c #111316",
"-  c #12151A",
";  c #131A1E",
":  c #191B1E",
">  c #0E1B20",
",  c #141D22",
"<  c #1A1E22",
"1  c #162124",
"2  c #1D2126",
"3  c #1B2527",
"4  c #192225",
"5  c #1D2328",
"6  c #1E2329",
"7  c #1E2428",
"8  c #1E252A",
"9  c #1C2629",
"0  c #1F2A2F",
"q  c #202126",
"w  c #212227",
"e  c #222426",
"r  c #262724",
"t  c #21262A",
"y  c #22272C",
"u  c #222529",
"i  c #21282B",
"p  c #232A2E",
"a  c #26292D",
"s  c #24292C",
"d  c #2A2C2C",
"f  c #2F312E",
"g  c #25322E",
"h  c #262E31",
"j  c #232F31",
"k  c #292F32",
"l  c #273131",
"z  c #253135",
"x  c #283131",
"c  c #2B3534",
"v  c #2D3A39",
"b  c #333532",
"n  c #3E3731",
"m  c #373937",
"M  c #3A3936",
"N  c #303E3A",
"B  c #3D3D3B",
"V  c #413A37",
"C  c #443D3B",
"Z  c #36423D",
"A  c #42423E",
"S  c #4C463F",
"D  c #344040",
"F  c #3B4646",
"G  c #3C4946",
"H  c #3C4A49",
"J  c #4B4441",
"K  c #4B4B45",
"L  c #414E4B",
"P  c #4D4E4C",
"I  c #464843",
"U  c #524C45",
"Y  c #534E4A",
"T  c #4B544D",
"R  c #42524D",
"E  c #50524E",
"W  c #59544F",
"Q  c #535451",
"!  c #5B5751",
"~  c #555A55",
"^  c #5D5A55",
"/  c #5D5E5A",
"(  c #615C55",
")  c #5E625F",
"_  c #64625C",
"`  c #68635C",
"'  c #5F6562",
"]  c #626664",
"[  c #696660",
"{  c #646866",
"}  c #6D6B63",
"|  c #646968",
" . c #6D6F6A",
".. c #716B64",
"X. c #736E68",
"o. c #6F706B",
"O. c #777167",
"+. c #73726C",
"@. c #7B766F",
"#. c #787770",
"$. c #7C7B73",
"%. c #7D7F79",
"&. c #817D75",
"*. c #7F807B",
"=. c #83827B",
"-. c #89867E",
";. c #858680",
":. c #878983",
">. c #8B8B85",
",. c #8D8E89",
"<. c #8F908B",
"1. c #919086",
"2. c #93938D",
"3. c #99968C",
"4. c #959690",
"5. c #979892",
"6. c #9B9B94",
"7. c #9F9F99",
"8. c #A19E95",
"9. c #9EA097",
"0. c #A4A49C",
"q. c #A8A79F",
"w. c #A7A89F",
"e. c #ACA99D",
"r. c #B1AD9F",
"t. c #A6A7A0",
"y. c #A7A8A0",
"u. c #ACABA3",
"i. c #B2AEA4",
"p. c #B4AFA8",
"a. c #AFB0A9",
"s. c #B5B2A5",
"d. c #B4B4AD",
"f. c #BBB6AA",
"g. c #BEB9AD",
"h. c #B6B7B0",
"j. c #B7B8B1",
"k. c #BCBCB4",
"l. c #BEBFB8",
"z. c #C3BDAE",
"x. c #C2BDB4",
"c. c #C4BFB8",
"v. c #BEC0B7",
"b. c #BFC0B9",
"n. c #C5C1B6",
"m. c #C9C4B7",
"M. c #C4C2B9",
"N. c #C9C6BC",
"B. c #CDC9BE",
"V. c #D3CEBE",
"C. c #D4D0BF",
"Z. c #CECBC2",
"A. c #CBC7C1",
"S. c #D2CEC3",
"D. c #D3CFC8",
"F. c #D5D1C5",
"G. c #DAD5C5",
"H. c #DED8C7",
"J. c #D5D3CA",
"K. c #DAD6CA",
"L. c #DDD9CC",
"P. c #DEDAD2",
"I. c #E2DDCD",
"U. c #E2DDD2",
"Y. c #E3DFD8",
"T. c #E4E0CF",
"R. c #E4E1D4",
"E. c #E9E3D2",
"W. c #E6E2D9",
"Q. c #E8E3DB",
"!. c #EAE6E0",
"~. c #EEEAE4",
/* pixels */
"                                                                                                                                ",
"                                                                                                                                ",
"                                                                                                                                ",
"                                                                                                                                ",
"                                                                                        - - - - - - - : : : < < < <             ",
"                                    = = = = = = : : : : < 2 2 2 8 t H F F y 2 < < < : : - - - - - : : < < < 2 w e e e           ",
"                              o o @ $ $ $ & & - - - ; , < < < < 7 t L H G t 8 2 < < < < , : : < < p l v v v N Z Z Z g           ",
"                              @ $ ; : : < < < 4 2 4 2 8 y t t 8 y p L G F p t 8 7 2 2 < < < < < < w t t p p p p p p :           ",
"                              o $ : , , , < < 4 4 4 4 4 8 8 7 4 7 7 h h a 8 2 2 2 < < < < < < < < 2 t d w w w w w w :           ",
"                              o $ : : : , , < 4 4 4 1 4 2 2 7 4 7 7 i i i 8 8 2 2 < < < < , < < < t d c w w w w w w :           ",
"                              o $ : : : , , , 4 3 4 1 4 4 4 7 8 p h x x x l l p t , , , , , , < 2 ~ T T < < < < < < =           ",
"                              o $ ; : : : , , 4 3 4 , < 4 4 4 , 1 4 4 4 4 4 4 , , : : : , , < < < p s t : : : < < < =           ",
"                              o $ ; : : , , , 1 3 4 , < , 1 1 , , , 8 4 < , , , , : , , < < < 2 2 2 < < : : : < < : @           ",
"                              o $ ; ; ; , , , 1 3 1 , , , , 1 , , , R c 3 , , , , , 8 t k k k k k t < : : : ; : : : @           ",
"                              X @ ; ; ; , , , 1 1 , , , , , , , 0 z D c j * * ; ; ; < i G 8 4 , , : , , , : ; ; - - O           ",
"                              X + ; ; ; ; , , 1 1 , , , , , , , 0 z v z j * * - - ; , 8 F 4 , ; - - : , , : - - - - O           ",
"                              o + ; ; ; ; ; , 1 1 , , , , , , , , , * * * * & * * * * * * * * - - - - - - - - - - - o           ",
"                              o + ; ; ; ; * ; 1 1 , , , , 1 1 3 1 1 1 , * & & & & * & & & * * * * * * * - - - - = = o           ",
"                              o + ; ; ; ; * ; 1 1 , , , , 1 1 3 1 1 1 > * * & & & & $ $ $ & & $ & & & & - - - - = = X           ",
"                              + % - ; ; ; * ; 1 1 1 > , , , , , > & & & * * - * * $ $ $ $ $ $ $ $ $ $ $ - - - - = $ X           ",
"                              + % - ; ; ; ; ; 1 1 , > , > > > > > & > * * * * * * $ $ $ $ $ $ $ $ $ $ $ = = = - = @ X           ",
"                              + % ; , , ; ; , , 1 , , , > > > > * & & * * * * * * % % % % % % $ $ $ $ $ = = = = $ @ X           ",
"                              + % ; , , , , , 1 , , , , > > > > * * $ $ $ & & * & & % % % % % % $ $ & - = = = = = @ X           ",
"                              + % ; , , , , , , , , , , > > * > > > % % % $ & * * & % % % % % % % & - - = = = = $ @ .           ",
"                              + $ , 1 1 1 , , , , , > > > * * * > > % % % % & & * * * * * * ; ; , ; & - $ $ $ = @ @ .           ",
"                              + $ 1 1 1 1 , , , , , > > > * * * * > % % % % & & & * * * * ; ; ; , ; - - $ $ $ = @ @ .           ",
"                              # $ 1 4 1 1 1 , , , , , , > * * * & & % % % $ & & & * * * ; ; ; , , ; - - - $ = = @ @ .           ",
"                              # & 1 4 4 4 1 1 1 , , * * * * * & & & % % % $ & & & * * * ; ; ; , , ; - - - - - ; = @ X           ",
"                              # & , 4 4 4 1 , , , ; * * * * * * & & % % % $ $ $ $ & & & & & & ; ; - - - : : : : - $ o           ",
"                              # & , 4 1 1 , , , , ; ; ; , * * * & & % % $ $ $ $ $ & & & & $ $ $ $ - - - < < < < : = O           ",
"                              $ $ $ & $ $ $ $ $ # @ @ @ @ + + + o o o X X X X X . . . . . . . . . X X X X o o o o o O           ",
"                              ) ' ' ] { { { { | { { { { ] ] ] ] ] ] ) / / ~ ~ Q Q Q E T P P P P P P P P P P P P P P P           ",
"                              d.d.d.j.j.k.b.b.M.M.M.M.M.v.k.k.l.k.k.j.d.d.u.u.w.0.0.9.6.6.6.6.4.4.2.2.2.2.2.2.2.2.2.2.          ",
"                              u.d.d.j.k.k.M.M.M.b.b.k.k.k.k.k.j.j.j.d.2.=.%.u.y.y.w.w.0.0.0.y.y.y.u.u.u.u.u.u.i.i.i.s.          ",
"                              7.0.u.d.d.j.j.j.j.h.h.d.d.h.d.d.d.d.a.a.0.6.5.y.y.y.0.0.0.0.0.0.y.y.u.u.u.u.u.u.u.i.i.i.          ",
"                              ^ +.:.u.u.u.y.y.y.0.0.6.6.4.2.2.2.:.*.*.*.*.%.%.>.2.6.2.<.>.=.%.=.-.$.$.$.3.                      ",
"                            C Y [ =.i.i.u.u.y.q.0.0.6.2.>.>.>.>.$.o. .o.+. . .=.:.2.>.:.;.+.+.#.&...` (                         ",
"                          C K X.8.D.D.D.Z.F.Z.Z.Z.A.k.a.y.y.t.7.5.2.2.5.6.2.2.5.6.0.6.6.6.6.0.M.M.i.+.I B B m b b m ` _ } $.B.T.",
"                      B V Y ` 8.c.Z.Z.Z.A.N.N.N.k.k.u.2.2.2.2.2.<.,.<.2.2.2.,.<.<.<.2.2.,.2.2.y.k.s.6.>.B B m r d d B K K K / e.",
"                      C C ! @.p.Z.D.Z.Z.Z.N.N.N.k.k.u.,.,.,.,.,.,.,.,.2.2.,.,.,.,.,.2.2.,.<.2.0.x.g.u.0.I A B r d d b A A A A 1.",
"                    C Y ! =.Z.Q.!.!.!.Y.K.J.J.J.F.D.k.4.2.2.4.2.2.2.,.,.,.>.>.>.2.8.s.r.8.6.2.0.J.K.F.F.$.[ Q m b f b b A A A K ",
"                C C W [ +.A.W.~.~.~.D.J.F.S.D.F.S.S.B.M.M.N.N.M.N.N.N.N.N.N.M.N.N.x.F.S.N.x.x.B.L.K.G.F.N.8.#.} _ ^ ! / _ _ +.[ ",
"              V A J ^ @.-.P.!.~.~.~.Z.D.F.S.S.D.S.S.S.Z.S.F.F.S.F.F.F.F.F.F.F.J.F.N.K.K.F.B.B.F.L.G.G.F.K.s.>.=.$.+.+.+.+.+.-.$.",
"            C C Y ! ..x.P.!.!.Q.W.P.Z.S.L.S.S.S.B.B.Z.B.Z.S.F.S.S.D.F.S.S.F.K.D.Z.M.B.Z.G.F.S.m.z.F.F.F.G.L.R.R.G.N.H.m.g.g.L.R.",
"          C J W ` ..f.K.W.Q.W.W.P.F.S.F.K.N.B.S.B.B.B.S.S.F.F.S.S.S.F.F.F.F.F.K.F.x.n.M.B.N.n.N.F.V.F.G.H.G.G.I.K.S.K.F.f.s.m.B.",
"          C U ( +.&.B.U.W.Q.W.W.P.Z.S.S.F.N.B.S.B.B.Z.F.F.F.F.F.S.S.F.F.F.F.F.L.G.n.n.m.B.n.n.B.G.C.F.G.H.G.F.I.K.S.L.G.z.f.x.m.",
"      n V J ( } s.S.Q.W.W.Q.W.Y.D.g.n.M.B.J.F.S.n.N.L.U.I.U.U.U.K.F.K.K.L.F.F.I.L.S.K.G.B.B.B.F.K.I.G.V.m.V.H.I.F.B.E.E.I.I.z.f.",
"    n S U ! O.f.K.U.Q.W.W.Q.W.W.P.D.F.F.F.J.J.J.D.F.J.J.J.J.J.J.J.F.J.J.J.D.D.F.F.Z.D.M.2.+.o.+.+.+.+.+.+.+.+.-.>.2.e.i.s.s.r.f."
};
